<?xml version="1.0" encoding="utf-8"?>
<!-- Generator: Adobe Illustrator 16.0.0, SVG Export Plug-In . SVG Version: 6.00 Build 0)  -->
<!DOCTYPE svg PUBLIC "-//W3C//DTD SVG 1.1//EN" "http://www.w3.org/Graphics/SVG/1.1/DTD/svg11.dtd">
<svg version="1.1" id="Layer_1" xmlns="http://www.w3.org/2000/svg" xmlns:xlink="http://www.w3.org/1999/xlink" x="0px" y="0px"
	 width="268px" height="150px" viewBox="115.995 174.938 268 150" enable-background="new 115.995 174.938 268 150"
	 xml:space="preserve">
<path fill="#9F9F9F" d="M207.916,324.938l-0.291-0.516c-5.541-9.881-9.357-16.93-10.362-18.786
	c-7.785,5.871-20.687,2.128-21.246,1.96l-0.615-0.184l0.371-0.524c5.653-7.996,10.615-12.583,12.47-14.172
	c-4.902-1.078-8.747-4.357-11.405-7.447c-0.586,1.215-1.216,2.477-1.897,3.785l-0.323,0.618l-0.447-0.543
	c-0.093-0.113-8.38-10.407-7.324-24.438c-2.118,4.305-6.803,10.964-17.146,18.364l-0.563,0.402l-0.155-0.675
	c-0.033-0.141-2.766-12.652,4.169-24.526c-3.864,3.071-10.902,7.17-22.94,9.881l-0.7,0.16l0.146-0.703
	c0.028-0.142,2.7-12.404,13.709-20.588c-4.704,1.271-12.616,2.139-24.513-0.305l-0.68-0.141l0.394-0.572
	c0.084-0.122,7.423-10.617,20.86-13.596c-4.883-0.745-12.672-3.123-22.842-10.105l-0.591-0.403l0.601-0.371
	c0.131-0.08,11.967-7.231,26.452-3.508c-3.596-2.79-9.644-9.164-14.527-22.697l-0.234-0.652l0.695,0.038
	c0.141,0.005,12.939,0.783,22.494,10.683c-1.911-4.549-3.944-12.427-3.282-24.737l0.038-0.718l0.639,0.333
	c0.127,0.065,11.217,5.97,16.104,18.776c0.057-4.867,1.375-12.708,6.963-23.476l0.319-0.619l0.446,0.535
	c0.094,0.113,8.217,10.021,7.428,23.743c2.047-4.488,6.46-11.33,15.954-19.204l0.55-0.455l0.192,0.689
	c0.038,0.136,3.235,12.127-2.784,24.353c3.625-3.297,10.282-7.682,21.94-10.908l0.671-0.183l-0.089,0.685
	c-0.019,0.146-1.761,12.831-12.367,21.596c4.685-1.558,12.705-2.982,24.945-1.393l0.713,0.094l-0.38,0.609
	c-0.076,0.122-6.813,10.716-19.969,14.613c4.855,0.427,12.583,2.331,22.913,8.713l0.591,0.366l-0.563,0.403
	c-0.118,0.084-10.635,7.424-24.27,5.594c4.324,2.378,10.823,7.292,17.963,17.342l0.414,0.582l-0.7,0.136
	c-0.047,0.009-1.559,0.296-3.996,0.371c0.61,8.891-0.108,14.818-0.418,16.817c9.521-2.58,19.95,5.018,20.4,5.35l0.535,0.395
	l-0.559,0.36c-8.259,5.347-14.653,7.851-17.039,8.686c8.761,5.322,10.216,17.3,10.278,17.824l0.075,0.666l-0.653-0.168
	c-10.24-2.659-16.878-5.741-19.193-6.908c1.99,9.712-6.841,18.196-6.935,18.285L207.916,324.938z M197.549,304.215l0.268,0.498
	c0.042,0.075,4.033,7.508,10.315,18.721c1.766-1.867,8.381-9.566,6.014-17.942l-0.305-1.079l0.977,0.554
	c0.07,0.037,6.901,3.855,19.212,7.119c-0.46-2.711-2.685-12.813-10.606-16.958l-1.019-0.534l1.104-0.319
	c0.07-0.019,7.164-2.119,17.216-8.529c-2.348-1.566-11.676-7.261-19.733-4.615l-0.756,0.248l0.16-0.778
	c0.014-0.07,1.282-6.443,0.526-17.36c-1.272,0-2.756-0.047-4.375-0.216c-3.573,2.078-8,5.707-8.879,11.223l-0.174,1.105
	l-0.657-0.909c-0.024-0.033-1.188-1.632-3.592-4.262c0.507,3.783,0.732,8.332,0.441,13.726l-0.038,0.675l-0.615-0.281
	c-0.089-0.043-5.173-2.41-10.179-7.471c0.371,0.69,0.803,1.36,1.306,2.012l0.742,0.962l-1.193-0.229
	c-0.061-0.015-5.239-0.977-13.978-0.761c-0.704,1.717-1.512,3.551-2.432,5.501c2.747,3.269,6.855,6.861,12.076,7.668l1.071,0.164
	l-0.864,0.656c-0.057,0.043-5.78,4.465-12.663,14.069c2.742,0.684,13.775,2.987,20.203-2.303L197.549,304.215z M168.266,261.086
	c-2.629,13.575,4.353,24.343,6.193,26.89c0.615-1.201,1.192-2.363,1.728-3.489c-2.287-2.827-3.531-5.322-3.644-5.543l-0.3-0.604
	l0.671-0.057c2.202-0.192,4.263-0.305,6.165-0.361c4.737-11.767,4.639-17.857,4.639-17.933l0.916-0.103
	c0.985,5.083,3.169,9.285,5.714,12.662c-1.413-6.937,1.235-13.619,1.272-13.708l0.235-0.582l0.489,0.398
	c3.953,3.26,7.094,6.232,9.474,8.677c-1.728-8.892-4.949-12.555-4.995-12.606l0.643-0.661c6.329,5.416,13.358,7.391,18.818,8.009
	c2.484-1.401,4.517-2.063,4.724-2.128l0.544-0.174l0.057,0.567c0.065,0.671,0.122,1.322,0.169,1.96
	c1.409-0.042,2.498-0.154,3.165-0.244c-9.287-12.834-17.503-16.882-20.809-18.068c-0.535-0.14-1.071-0.295-1.61-0.468l0.216-0.896
	c0.103,0.019,0.77,0.136,1.892,0.539c13.127,3.353,24.058-2.701,26.678-4.333c-13.146-7.977-21.964-8.488-25.622-8.221
	c-0.643,0.112-1.305,0.211-1.977,0.286l-0.183-0.901c0.108-0.033,0.859-0.239,2.221-0.333c13.16-2.396,20.729-11.93,22.518-14.439
	c-15.738-1.913-24.292,1.365-27.406,2.983c-0.465,0.295-0.944,0.581-1.436,0.863l-0.512-0.764c0.084-0.066,0.625-0.469,1.676-1.018
	c11.385-7.348,14.353-19.476,14.93-22.501c-14.667,4.188-21.062,10.304-23.41,13.22c-0.375,0.582-0.774,1.164-1.197,1.735
	l-0.789-0.479c0.052-0.103,0.427-0.835,1.329-1.956c7.113-11.212,5.258-23.105,4.634-26.097
	c-12.113,10.219-15.531,18.707-16.46,22.088c-0.099,0.54-0.216,1.088-0.348,1.637l-0.911-0.146c0.01-0.103,0.076-0.774,0.395-1.922
	c2.352-13.319-4.521-23.753-6.353-26.239c-6.982,13.731-6.794,22.59-6.254,26.182c0.155,0.619,0.3,1.252,0.423,1.899l-0.888,0.253
	c-0.042-0.108-0.305-0.839-0.502-2.19c-3.371-12.924-13.466-19.738-16.104-21.333c-0.713,15.822,3.207,24.09,5.057,27.068
	c0.329,0.441,0.653,0.896,0.967,1.365l-0.723,0.572c-0.071-0.08-0.517-0.586-1.146-1.595c-8.203-10.781-20.532-12.821-23.598-13.168
	c7.123,19.223,16.762,23.373,16.86,23.411l-0.338,0.863c-13.648-5.084-25.607,0.482-28.443,1.993
	c13.141,8.863,22.254,9.801,25.766,9.81c0.55-0.051,1.108-0.089,1.672-0.112l0.108,0.915c-0.103,0.019-0.77,0.136-1.958,0.146
	c-13.485,1.364-21.659,10.81-23.556,13.239c15.09,2.968,23.546,0.413,26.889-1.088c0.568-0.328,1.155-0.647,1.756-0.952l0.483,0.783
	c-0.089,0.066-0.723,0.52-1.972,1.079c-11.517,6.771-15.348,18.327-16.165,21.304c15.433-3.62,22.334-9.632,24.701-12.226
	c0.333-0.436,0.685-0.872,1.051-1.303l0.747,0.543c-0.056,0.089-0.422,0.656-1.226,1.534c-8.146,10.804-6.761,23.218-6.258,26.256
	c13.395-9.754,16.813-18.21,17.639-21.173c0.08-0.395,0.165-0.787,0.259-1.187l0.911,0.154
	C168.557,259.763,168.5,260.256,168.266,261.086z M173.698,279.141c0.479,0.858,1.474,2.523,2.943,4.384
	c0.766-1.641,1.451-3.197,2.062-4.67C177.139,278.906,175.468,279,173.698,279.141z M191.774,274.301
	c4.376,5.088,9.32,7.953,11.029,8.85c0.263-5.665-0.071-10.36-0.686-14.19c-2.356-2.481-5.615-5.651-9.85-9.179
	C191.6,261.752,189.76,268.195,191.774,274.301z M182.266,277.864c5.165,0,8.803,0.399,10.517,0.638
	c-0.798-1.204-1.395-2.467-1.826-3.741c-2.667-3.133-5.118-7.071-6.531-11.884c-0.394,2.88-1.465,7.884-4.314,15.012
	C180.853,277.874,181.572,277.864,182.266,277.864z M203.009,268.564c1.939,2.06,3.245,3.636,3.954,4.521
	c1.155-4.84,4.78-8.159,8.062-10.251c-4.742-0.681-10.447-2.388-15.855-6.271C200.404,258.802,202.042,262.662,203.009,268.564z
	 M218.015,262.229c1.028,0.07,1.962,0.09,2.845,0.09c-0.033-0.427-0.07-0.863-0.108-1.299
	C220.175,261.235,219.193,261.63,218.015,262.229z"/>
<path fill="#7B7B7B" d="M196.126,256.4c0,0-8.089,6.003-17.841,19.41c0,0,18.503,5.351,28.852-2.936c0,0,5.545,10.045,14.414,25.422
	c0,0,12.724-11.686,8.907-24.845c0,0,9.564,5.257,27.147,9.688c0,0-2.01-17.196-14.869-23.733c0,0,10.01-2.814,24.325-11.827
	c0,0-15.081-10.838-28.105-6.688c0,0,2.08-9.834,0.414-26.796c0,0-16.79,5.158-18.922,18.195c0,0-6.375-8.628-20.578-20.011
	c0,0-6.437,15.405,2.366,26.543c0,0-10.658-1.989-28.278-0.512C173.951,238.318,182.041,254.291,196.126,256.4"/>
<path fill="#9F9F9F" d="M152.133,246.375c0,0-5.737-7.476-3.15-26.239c0,0,13.301,7.447,14.921,22.323
	c0,0,0.451-8.544,10.555-24.569c0,0,8.16,11.822,3.493,26.041c0,0,1.747-9.111,18.024-18.819c0,0,2.015,14.144-8.596,24.704
	c0,0,5.638-7.554,24.414-10.176c0,0-4.005,13.505-17.893,19.11c0,0,7.911-4.872,26.1,0.465c0,0-9.024,11.081-23.992,10.476
	c0,0,9.381-0.993,24.063,10.993c0,0-12.428,6.316-25.983-0.057c0,0,8.503,4.306,13.428,22.595c0,0-14.174-1.909-21.461-14.983
	c0,0,5.743,7.476,3.165,26.238c0,0-11.921-7.527-13.545-22.397c0,0,2.544,8.929-7.549,24.958c0,0-8.222-11.691-3.559-25.91
	c0,0-1.592,9.285-17.137,20.133c0,0-2.606-13.755,7.226-25.043c0,0-4.854,8.033-23.49,11.555c0,0,2.981-13.974,16.583-20.239
	c0,0-7.897,5.148-26.429,1.158c0,0,8.414-11.302,23.386-11.795c0,0-9.108,1.857-24.344-9.411c0,0,12.297-7.302,26.138-1.581
	c0,0-9.151-2.293-18.799-18.594C127.696,237.305,141.602,235.734,152.133,246.375"/>
<path fill="#7B7B7B" d="M374.835,259.422h-1.957v-3.172h1.957v-3.441l3.948-1.454v4.891h4.644v3.171h-4.644v7.4
	c0,1.209,0.188,2.063,0.569,2.564c0.38,0.502,1.042,0.751,1.99,0.751s1.831-0.258,2.652-0.774v3.63
	c-0.915,0.315-2.221,0.475-3.92,0.475c-1.686,0-2.981-0.475-3.888-1.427s-1.356-2.307-1.356-4.061v-8.553H374.835z"/>
<path fill="#FFFFFF" d="M190.295,257.593l-1.69,2.949c-0.925-0.873-2.169-1.309-3.728-1.309c-1.498,0-2.676,0.497-3.544,1.491
	c-0.869,0.994-1.306,2.368-1.306,4.127c0,3.546,1.691,5.318,5.071,5.318c1.464,0,2.756-0.483,3.869-1.454l1.455,3.109
	c-1.15,0.717-2.15,1.167-3.009,1.354c-0.859,0.188-1.874,0.287-3.042,0.287c-2.611,0-4.676-0.761-6.184-2.28
	c-1.512-1.52-2.268-3.634-2.268-6.335c0-2.664,0.827-4.812,2.479-6.453c1.652-1.641,3.906-2.461,6.761-2.461
	C187.13,255.932,188.844,256.484,190.295,257.593z"/>
<path fill="#FFFFFF" d="M192.478,264.658c0-2.578,0.747-4.675,2.235-6.297c1.489-1.623,3.456-2.43,5.902-2.43
	c2.568,0,4.568,0.778,5.986,2.336c1.423,1.557,2.132,3.686,2.132,6.391c0,2.692-0.723,4.835-2.174,6.425
	c-1.446,1.59-3.432,2.384-5.949,2.384c-2.568,0-4.568-0.803-5.996-2.407C193.192,269.456,192.478,267.323,192.478,264.658z
	 M196.586,264.658c0,3.725,1.343,5.586,4.029,5.586c1.23,0,2.207-0.482,2.93-1.454c0.723-0.966,1.08-2.345,1.08-4.136
	c0-3.672-1.338-5.505-4.014-5.505c-1.23,0-2.211,0.482-2.939,1.453C196.948,261.573,196.586,262.924,196.586,264.658z"/>
<path fill="#FFFFFF" d="M221.677,259.927c-0.704-0.464-1.479-0.693-2.324-0.693c-0.916,0-1.728,0.417-2.441,1.247
	c-0.709,0.83-1.066,1.848-1.066,3.049v9.628h-3.948v-16.902h3.948v1.548c1.108-1.242,2.578-1.861,4.409-1.861
	c1.347,0,2.38,0.206,3.099,0.614L221.677,259.927z"/>
<path fill="#FFFFFF" d="M224.677,272.059l1.404-3.142c1.178,0.938,2.512,1.407,3.995,1.407c1.54,0,2.306-0.549,2.306-1.642
	c0-0.643-0.23-1.167-0.695-1.58c-0.465-0.407-1.366-0.892-2.699-1.454c-2.916-1.21-4.376-2.902-4.376-5.084
	c0-1.462,0.559-2.603,1.676-3.418c1.118-0.816,2.545-1.224,4.282-1.224c1.76,0,3.414,0.394,4.963,1.181l-1.136,3.063
	c-0.864-0.736-2.066-1.107-3.602-1.107c-1.38,0-2.07,0.549-2.07,1.642c0,0.432,0.225,0.82,0.681,1.168
	c0.451,0.347,1.423,0.812,2.906,1.396c1.484,0.582,2.554,1.29,3.207,2.125c0.652,0.83,0.981,1.834,0.981,3.016
	c0,1.566-0.582,2.799-1.746,3.699c-1.165,0.9-2.747,1.352-4.747,1.352c-1.126,0-2.028-0.094-2.709-0.277
	C226.616,272.997,225.743,272.632,224.677,272.059z"/>
<path fill="#FFFFFF" d="M238.551,264.658c0-2.578,0.747-4.675,2.235-6.297c1.489-1.623,3.456-2.43,5.902-2.43
	c2.568,0,4.568,0.778,5.986,2.336c1.423,1.557,2.132,3.686,2.132,6.391c0,2.692-0.724,4.835-2.174,6.425
	c-1.446,1.59-3.433,2.384-5.949,2.384c-2.568,0-4.568-0.803-5.996-2.407C239.265,269.456,238.551,267.323,238.551,264.658z
	 M242.659,264.658c0,3.725,1.343,5.586,4.028,5.586c1.23,0,2.207-0.482,2.93-1.454c0.724-0.966,1.08-2.345,1.08-4.136
	c0-3.672-1.338-5.505-4.015-5.505c-1.23,0-2.211,0.482-2.939,1.453C243.021,261.573,242.659,262.924,242.659,264.658z"/>
<path fill="#7B7B7B" d="M266.609,273.151v-1.341l9.179-12.122h-9.023v-3.438h14.79v1.389l-8.847,12.071h8.944v3.441H266.609z"/>
<path fill="#7B7B7B" d="M295.714,273.166v-1.421c-0.559,0.474-1.329,0.877-2.306,1.214c-0.981,0.338-1.878,0.508-2.7,0.508
	c-3.929,0-5.892-2.083-5.892-6.247v-10.97h3.948v10.669c0,2.167,0.972,3.251,2.925,3.251c0.897,0,1.729-0.23,2.498-0.695
	c0.771-0.464,1.282-0.998,1.531-1.608V256.25h3.948v16.916H295.714z"/>
<path fill="#7B7B7B" d="M314.814,273.151v-9.768c0-1.44-0.277-2.495-0.831-3.156c-0.555-0.661-1.456-0.994-2.709-0.994
	c-0.578,0-1.197,0.164-1.855,0.487c-0.657,0.329-1.173,0.731-1.539,1.215v12.216h-3.949V256.25h2.846l0.728,1.576
	c1.075-1.262,2.657-1.895,4.756-1.895c2.01,0,3.602,0.601,4.766,1.807c1.164,1.204,1.747,2.883,1.747,5.04v10.369h-3.958V273.151z"
	/>
<path fill="#7B7B7B" d="M333.917,273.151v-1.026c-0.323,0.356-0.878,0.67-1.657,0.938c-0.779,0.269-1.587,0.404-2.417,0.404
	c-2.362,0-4.217-0.746-5.569-2.242c-1.352-1.496-2.028-3.578-2.028-6.251c0-2.674,0.775-4.849,2.329-6.528
	c1.555-1.679,3.498-2.518,5.836-2.518c1.287,0,2.456,0.262,3.507,0.787v-6.771l3.949-0.947v24.146h-3.949V273.151z M333.917,260.288
	c-0.84-0.671-1.723-1.008-2.639-1.008c-1.577,0-2.793,0.482-3.647,1.444s-1.282,2.345-1.282,4.146c0,3.513,1.695,5.271,5.09,5.271
	c0.381,0,0.845-0.112,1.399-0.338c0.554-0.226,0.915-0.456,1.079-0.689V260.288z"/>
<path fill="#7B7B7B" d="M356.919,265.906h-12.085c0.075,1.347,0.535,2.396,1.389,3.143c0.855,0.745,2.001,1.121,3.447,1.121
	c1.803,0,3.169-0.47,4.108-1.403l1.53,3.017c-1.39,1.125-3.465,1.688-6.226,1.688c-2.582,0-4.62-0.756-6.122-2.266
	c-1.503-1.51-2.255-3.615-2.255-6.321c0-2.664,0.827-4.815,2.475-6.471c1.648-1.651,3.625-2.476,5.935-2.476
	c2.456,0,4.423,0.73,5.911,2.193c1.484,1.464,2.23,3.325,2.23,5.585C357.252,264.194,357.14,264.927,356.919,265.906z
	 M344.975,262.938h8.311c-0.272-2.471-1.644-3.709-4.108-3.709C346.923,259.233,345.524,260.467,344.975,262.938z"/>
<path fill="#7B7B7B" d="M370.192,259.927c-0.704-0.464-1.479-0.693-2.324-0.693c-0.915,0-1.732,0.417-2.44,1.247
	c-0.709,0.83-1.066,1.848-1.066,3.049v9.628h-3.948v-16.902h3.948v1.548c1.108-1.242,2.573-1.861,4.409-1.861
	c1.347,0,2.38,0.206,3.099,0.614L370.192,259.927z"/>
<path fill="#7B7B7B" d="M374.835,259.422h-1.957v-3.172h1.957v-3.441l3.948-1.454v4.891h4.644v3.171h-4.644v7.4
	c0,1.209,0.188,2.063,0.569,2.564c0.38,0.502,1.042,0.751,1.99,0.751s1.831-0.258,2.652-0.774v3.63
	c-0.915,0.315-2.221,0.475-3.92,0.475c-1.686,0-2.981-0.475-3.888-1.427s-1.356-2.307-1.356-4.061v-8.553H374.835z"/>
</svg>
