<svg xmlns="http://www.w3.org/2000/svg" viewBox="0 0 57.082 32"><path d="M19.578 31.986l-0.062-0.11c-1.18-2.107-1.993-3.61-2.207-4.006 -1.658 1.252-4.406 0.454-4.525 0.418l-0.131-0.039 0.079-0.112c1.204-1.705 2.261-2.683 2.656-3.022 -1.044-0.23-1.863-0.929-2.429-1.588 -0.125 0.259-0.259 0.528-0.404 0.807l-0.069 0.132 -0.095-0.116c-0.02-0.024-1.785-2.219-1.56-5.211 -0.451 0.918-1.449 2.338-3.652 3.916l-0.12 0.086 -0.033-0.144c-0.007-0.03-0.589-2.698 0.888-5.23 -0.823 0.655-2.322 1.529-4.886 2.107l-0.149 0.034 0.031-0.15c0.006-0.03 0.575-2.645 2.92-4.39 -1.002 0.271-2.687 0.456-5.221-0.065l-0.145-0.03 0.084-0.122c0.018-0.026 1.581-2.264 4.443-2.899 -1.04-0.159-2.699-0.666-4.865-2.155L0 10.011l0.128-0.079C0.156 9.915 2.677 8.39 5.762 9.184 4.996 8.589 3.708 7.23 2.668 4.344l-0.05-0.139 0.148 0.008C2.796 4.214 5.522 4.38 7.557 6.491c-0.407-0.97-0.84-2.65-0.699-5.275l0.008-0.153 0.136 0.071c0.027 0.014 2.389 1.273 3.43 4.004 0.012-1.038 0.293-2.71 1.483-5.006L11.983 0l0.095 0.114c0.02 0.024 1.75 2.137 1.582 5.063 0.436-0.957 1.376-2.416 3.398-4.095l0.117-0.097 0.041 0.147c0.008 0.029 0.689 2.586-0.593 5.193 0.772-0.703 2.19-1.638 4.673-2.326l0.143-0.039L21.42 4.106c-0.004 0.031-0.375 2.736-2.634 4.605 0.998-0.332 2.706-0.636 5.313-0.297l0.152 0.02 -0.081 0.13c-0.016 0.026-1.451 2.285-4.253 3.116 1.034 0.091 2.68 0.497 4.88 1.858l0.126 0.078 -0.12 0.086c-0.025 0.018-2.265 1.583-5.169 1.193 0.921 0.507 2.305 1.555 3.826 3.698l0.088 0.124 -0.149 0.029c-0.01 0.002-0.332 0.063-0.851 0.079 0.13 1.896-0.023 3.16-0.089 3.586 2.028-0.55 4.249 1.07 4.345 1.141l0.114 0.084 -0.119 0.077c-1.759 1.14-3.121 1.674-3.629 1.852 1.866 1.135 2.176 3.689 2.189 3.801l0.016 0.142 -0.139-0.036c-2.181-0.567-3.595-1.224-4.088-1.473 0.424 2.071-1.457 3.88-1.477 3.899L19.578 31.986zM17.37 27.567l0.057 0.106c0.009 0.016 0.859 1.601 2.197 3.992 0.376-0.398 1.785-2.04 1.281-3.826l-0.065-0.23 0.208 0.118c0.015 0.008 1.47 0.822 4.092 1.518 -0.098-0.578-0.572-2.732-2.259-3.616l-0.217-0.114 0.235-0.068c0.015-0.004 1.526-0.452 3.667-1.819 -0.5-0.334-2.487-1.548-4.203-0.984l-0.161 0.053 0.034-0.166c0.003-0.015 0.273-1.374 0.112-3.702 -0.271 0-0.587-0.01-0.932-0.046 -0.761 0.443-1.704 1.217-1.891 2.393l-0.037 0.236 -0.14-0.194c-0.005-0.007-0.253-0.348-0.765-0.909 0.108 0.807 0.156 1.777 0.094 2.927l-0.008 0.144 -0.131-0.06c-0.019-0.009-1.102-0.514-2.168-1.593 0.079 0.147 0.171 0.29 0.278 0.429l0.158 0.205 -0.254-0.049c-0.013-0.003-1.116-0.208-2.977-0.162 -0.15 0.366-0.322 0.757-0.518 1.173 0.585 0.697 1.46 1.463 2.572 1.635l0.228 0.035 -0.184 0.14c-0.012 0.009-1.231 0.952-2.697 3 0.584 0.146 2.934 0.637 4.303-0.491L17.37 27.567zM11.133 18.37c-0.56 2.895 0.927 5.191 1.319 5.734 0.131-0.256 0.254-0.504 0.368-0.744 -0.487-0.603-0.752-1.135-0.776-1.182l-0.064-0.129 0.143-0.012c0.469-0.041 0.908-0.065 1.313-0.077 1.009-2.509 0.988-3.808 0.988-3.824l0.195-0.022c0.21 1.084 0.675 1.98 1.217 2.7 -0.301-1.479 0.263-2.904 0.271-2.923l0.05-0.124 0.104 0.085c0.842 0.695 1.511 1.329 2.018 1.85 -0.368-1.896-1.054-2.677-1.064-2.688l0.137-0.141c1.348 1.155 2.845 1.576 4.008 1.708 0.529-0.299 0.962-0.44 1.006-0.454l0.116-0.037 0.012 0.121c0.014 0.143 0.026 0.282 0.036 0.418 0.3-0.009 0.532-0.033 0.674-0.052 -1.978-2.737-3.728-3.6-4.432-3.853 -0.114-0.03-0.228-0.063-0.343-0.1l0.046-0.191c0.022 0.004 0.164 0.029 0.403 0.115 2.796 0.715 5.124-0.576 5.682-0.924 -2.8-1.701-4.678-1.81-5.457-1.753 -0.137 0.024-0.278 0.045-0.421 0.061l-0.039-0.192c0.023-0.007 0.183-0.051 0.473-0.071 2.803-0.511 4.415-2.544 4.796-3.079 -3.352-0.408-5.174 0.291-5.837 0.636 -0.099 0.063-0.201 0.124-0.306 0.184l-0.109-0.163c0.018-0.014 0.133-0.1 0.357-0.217 2.425-1.567 3.057-4.153 3.18-4.798 -3.124 0.893-4.486 2.197-4.986 2.819 -0.08 0.124-0.165 0.248-0.255 0.37l-0.168-0.102c0.011-0.022 0.091-0.178 0.283-0.417 1.515-2.391 1.12-4.927 0.987-5.565 -2.58 2.179-3.308 3.989-3.506 4.71 -0.021 0.115-0.046 0.232-0.074 0.349l-0.194-0.031c0.002-0.022 0.016-0.165 0.084-0.41 0.501-2.84-0.963-5.065-1.353-5.595 -1.487 2.928-1.447 4.817-1.332 5.583 0.033 0.132 0.064 0.267 0.09 0.405l-0.189 0.054c-0.009-0.023-0.065-0.179-0.107-0.467C9.759 3.179 7.609 1.726 7.047 1.386 6.895 4.76 7.73 6.523 8.124 7.158c0.07 0.094 0.139 0.191 0.206 0.291L8.176 7.571c-0.015-0.017-0.11-0.125-0.244-0.34C6.185 4.932 3.559 4.497 2.906 4.423c1.517 4.099 3.57 4.984 3.591 4.992L6.425 9.599c-2.907-1.084-5.454 0.103-6.058 0.425 2.799 1.89 4.74 2.09 5.488 2.092 0.117-0.011 0.236-0.019 0.356-0.024l0.023 0.195c-0.022 0.004-0.164 0.029-0.417 0.031 -2.872 0.291-4.613 2.305-5.017 2.823 3.214 0.633 5.015 0.088 5.727-0.232 0.121-0.07 0.246-0.138 0.374-0.203l0.103 0.167c-0.019 0.014-0.154 0.111-0.42 0.23 -2.453 1.444-3.269 3.908-3.443 4.543 3.287-0.772 4.757-2.054 5.261-2.607 0.071-0.093 0.146-0.186 0.224-0.278l0.159 0.116c-0.012 0.019-0.09 0.14-0.261 0.327 -1.735 2.304-1.44 4.951-1.333 5.599 2.853-2.08 3.581-3.883 3.757-4.515 0.017-0.084 0.035-0.168 0.055-0.253l0.194 0.033C11.195 18.088 11.183 18.193 11.133 18.37zM12.29 22.22c0.102 0.183 0.314 0.538 0.627 0.935 0.163-0.35 0.309-0.682 0.439-0.996C13.023 22.17 12.667 22.19 12.29 22.22zM16.14 21.188c0.932 1.085 1.985 1.696 2.349 1.887 0.056-1.208-0.015-2.209-0.146-3.026 -0.502-0.529-1.196-1.205-2.098-1.957C16.103 18.512 15.711 19.886 16.14 21.188zM14.115 21.948c1.1 0 1.875 0.085 2.24 0.136 -0.17-0.257-0.297-0.526-0.389-0.798 -0.568-0.668-1.09-1.508-1.391-2.534 -0.084 0.614-0.312 1.681-0.919 3.201C13.814 21.95 13.967 21.948 14.115 21.948zM18.533 19.965c0.413 0.439 0.691 0.775 0.842 0.964 0.246-1.032 1.018-1.74 1.717-2.186 -1.01-0.145-2.225-0.509-3.377-1.337C17.978 17.883 18.327 18.706 18.533 19.965zM21.729 18.614c0.219 0.015 0.418 0.019 0.606 0.019 -0.007-0.091-0.015-0.184-0.023-0.277C22.189 18.402 21.98 18.486 21.729 18.614z" fill="#F39204"/><path d="M17.067 17.371c0 0-1.723 1.28-3.8 4.139 0 0 3.941 1.141 6.145-0.626 0 0 1.181 2.142 3.07 5.421 0 0 2.71-2.492 1.897-5.298 0 0 2.037 1.121 5.782 2.066 0 0-0.428-3.667-3.167-5.061 0 0 2.132-0.6 5.181-2.522 0 0-3.212-2.311-5.986-1.426 0 0 0.443-2.097 0.088-5.714 0 0-3.576 1.1-4.03 3.88 0 0-1.358-1.84-4.383-4.267 0 0-1.371 3.285 0.504 5.66 0 0-2.27-0.424-6.023-0.109C12.344 13.515 14.067 16.921 17.067 17.371" fill="#E8580D"/><path d="M7.697 15.233c0 0-1.222-1.594-0.671-5.595 0 0 2.833 1.588 3.178 4.76 0 0 0.096-1.822 2.248-5.239 0 0 1.738 2.521 0.744 5.553 0 0 0.372-1.943 3.839-4.013 0 0 0.429 3.016-1.831 5.268 0 0 1.201-1.611 5.2-2.17 0 0-0.853 2.88-3.811 4.075 0 0 1.685-1.039 5.559 0.099 0 0-1.922 2.363-5.11 2.234 0 0 1.998-0.212 5.125 2.344 0 0-2.647 1.347-5.534-0.012 0 0 1.811 0.918 2.86 4.818 0 0-3.019-0.407-4.571-3.195 0 0 1.223 1.594 0.674 5.595 0 0-2.539-1.605-2.885-4.776 0 0 0.542 1.904-1.608 5.322 0 0-1.751-2.493-0.758-5.525 0 0-0.339 1.98-3.65 4.293 0 0-0.555-2.933 1.539-5.34 0 0-1.034 1.713-5.003 2.464 0 0 0.635-2.98 3.532-4.316 0 0-1.682 1.098-5.629 0.247 0 0 1.792-2.41 4.981-2.515 0 0-1.94 0.396-5.185-2.007 0 0 2.619-1.557 5.567-0.337 0 0-1.949-0.489-4.004-3.965C2.492 13.299 5.454 12.964 7.697 15.233" fill="#F39204"/><path d="M55.13 18.015h-0.417v-0.676h0.417v-0.734l0.841-0.31v1.043h0.989v0.676h-0.989v1.578c0 0.258 0.04 0.44 0.121 0.547 0.081 0.107 0.222 0.16 0.424 0.16 0.202 0 0.39-0.055 0.565-0.165v0.774c-0.195 0.067-0.473 0.101-0.835 0.101 -0.359 0-0.635-0.101-0.828-0.304 -0.193-0.203-0.289-0.492-0.289-0.866V18.015z" fill="#FFF"/><path d="M15.825 17.625l-0.36 0.629c-0.197-0.186-0.462-0.279-0.794-0.279 -0.319 0-0.57 0.106-0.755 0.318 -0.185 0.212-0.278 0.505-0.278 0.88 0 0.756 0.36 1.134 1.08 1.134 0.312 0 0.587-0.103 0.824-0.31l0.31 0.663c-0.245 0.153-0.458 0.249-0.641 0.289 -0.183 0.04-0.399 0.061-0.648 0.061 -0.556 0-0.996-0.162-1.317-0.486 -0.322-0.324-0.483-0.775-0.483-1.351 0-0.568 0.176-1.026 0.528-1.376 0.352-0.35 0.832-0.525 1.44-0.525C15.151 17.271 15.516 17.389 15.825 17.625z" fill="#FFF"/><path d="M16.29 19.132c0-0.55 0.159-0.997 0.476-1.343 0.317-0.346 0.736-0.518 1.257-0.518 0.547 0 0.973 0.166 1.275 0.498 0.303 0.332 0.454 0.786 0.454 1.363 0 0.574-0.154 1.031-0.463 1.37 -0.308 0.339-0.731 0.508-1.267 0.508 -0.547 0-0.973-0.171-1.277-0.513C16.442 20.155 16.29 19.7 16.29 19.132zM17.165 19.132c0 0.794 0.286 1.191 0.858 1.191 0.262 0 0.47-0.103 0.624-0.31 0.154-0.206 0.23-0.5 0.23-0.882 0-0.783-0.285-1.174-0.855-1.174 -0.262 0-0.471 0.103-0.626 0.31C17.242 18.474 17.165 18.762 17.165 19.132z" fill="#FFF"/><path d="M22.509 18.123c-0.15-0.099-0.315-0.148-0.495-0.148 -0.195 0-0.368 0.089-0.52 0.266 -0.151 0.177-0.227 0.394-0.227 0.65v2.053h-0.841v-3.604h0.841v0.33c0.236-0.265 0.549-0.397 0.939-0.397 0.287 0 0.507 0.044 0.66 0.131L22.509 18.123z" fill="#FFF"/><path d="M23.148 20.71l0.299-0.67c0.251 0.2 0.535 0.3 0.851 0.3 0.328 0 0.491-0.117 0.491-0.35 0-0.137-0.049-0.249-0.148-0.337 -0.099-0.087-0.291-0.19-0.575-0.31 -0.621-0.258-0.932-0.619-0.932-1.084 0-0.312 0.119-0.555 0.357-0.729 0.238-0.174 0.542-0.261 0.912-0.261 0.375 0 0.727 0.084 1.057 0.252l-0.242 0.653c-0.184-0.157-0.44-0.236-0.767-0.236 -0.294 0-0.441 0.117-0.441 0.35 0 0.092 0.048 0.175 0.145 0.249 0.096 0.074 0.303 0.173 0.619 0.298 0.316 0.124 0.544 0.275 0.683 0.453 0.139 0.177 0.209 0.391 0.209 0.643 0 0.334-0.124 0.597-0.372 0.789 -0.248 0.192-0.585 0.288-1.011 0.288 -0.24 0-0.432-0.02-0.577-0.059S23.375 20.832 23.148 20.71z" fill="#FFF"/><path d="M26.103 19.132c0-0.55 0.159-0.997 0.476-1.343 0.317-0.346 0.736-0.518 1.257-0.518 0.547 0 0.973 0.166 1.275 0.498 0.303 0.332 0.454 0.786 0.454 1.363 0 0.574-0.154 1.031-0.463 1.37 -0.308 0.339-0.731 0.508-1.267 0.508 -0.547 0-0.973-0.171-1.277-0.513C26.255 20.155 26.103 19.7 26.103 19.132zM26.978 19.132c0 0.794 0.286 1.191 0.858 1.191 0.262 0 0.47-0.103 0.624-0.31 0.154-0.206 0.23-0.5 0.23-0.882 0-0.783-0.285-1.174-0.855-1.174 -0.262 0-0.471 0.103-0.626 0.31C27.055 18.474 26.978 18.762 26.978 19.132z" fill="#FFF"/><path d="M32.079 20.943v-0.286l1.955-2.585h-1.922v-0.733h3.15v0.296l-1.884 2.574h1.905v0.734H32.079z" fill="#FFF"/><path d="M38.278 20.946v-0.303c-0.119 0.101-0.283 0.187-0.491 0.259 -0.209 0.072-0.4 0.108-0.575 0.108 -0.837 0-1.255-0.444-1.255-1.332v-2.339h0.841v2.275c0 0.462 0.207 0.693 0.623 0.693 0.191 0 0.368-0.049 0.532-0.148 0.164-0.099 0.273-0.213 0.326-0.343v-2.477h0.841v3.607H38.278z" fill="#FFF"/><path d="M42.346 20.943V18.86c0-0.307-0.059-0.532-0.177-0.673 -0.118-0.141-0.31-0.212-0.577-0.212 -0.123 0-0.255 0.035-0.395 0.104 -0.14 0.07-0.25 0.156-0.328 0.259v2.605h-0.841v-3.604h0.606l0.155 0.336c0.229-0.269 0.566-0.404 1.013-0.404 0.428 0 0.767 0.128 1.015 0.385 0.248 0.257 0.372 0.615 0.372 1.075v2.211H42.346z" fill="#FFF"/><path d="M46.415 20.943v-0.219c-0.069 0.076-0.187 0.143-0.353 0.2 -0.166 0.057-0.338 0.086-0.515 0.086 -0.503 0-0.898-0.159-1.186-0.478 -0.288-0.319-0.432-0.763-0.432-1.333 0-0.57 0.165-1.034 0.496-1.392 0.331-0.358 0.745-0.537 1.243-0.537 0.274 0 0.523 0.056 0.747 0.168v-1.444l0.841-0.202v5.149H46.415zM46.415 18.2c-0.179-0.143-0.367-0.215-0.562-0.215 -0.336 0-0.595 0.103-0.777 0.308 -0.182 0.205-0.273 0.5-0.273 0.884 0 0.749 0.361 1.124 1.084 1.124 0.081 0 0.18-0.024 0.298-0.072 0.118-0.048 0.195-0.097 0.23-0.147V18.2z" fill="#FFF"/><path d="M51.314 19.398H48.74c0.016 0.287 0.114 0.511 0.296 0.67 0.182 0.159 0.426 0.239 0.734 0.239 0.384 0 0.675-0.1 0.875-0.299l0.326 0.643c-0.296 0.24-0.738 0.36-1.326 0.36 -0.55 0-0.984-0.161-1.304-0.483 -0.32-0.322-0.48-0.771-0.48-1.348 0-0.568 0.176-1.027 0.527-1.38 0.351-0.352 0.772-0.528 1.264-0.528 0.523 0 0.942 0.156 1.259 0.468 0.316 0.312 0.475 0.709 0.475 1.191C51.385 19.033 51.361 19.189 51.314 19.398zM48.77 18.765h1.77c-0.058-0.527-0.35-0.791-0.875-0.791C49.185 17.975 48.887 18.238 48.77 18.765z" fill="#FFF"/><path d="M54.141 18.123c-0.15-0.099-0.315-0.148-0.495-0.148 -0.195 0-0.369 0.089-0.52 0.266 -0.151 0.177-0.227 0.394-0.227 0.65v2.053h-0.841v-3.604h0.841v0.33c0.236-0.265 0.548-0.397 0.939-0.397 0.287 0 0.507 0.044 0.66 0.131L54.141 18.123z" fill="#FFF"/><path d="M55.13 18.015h-0.417v-0.676h0.417v-0.734l0.841-0.31v1.043h0.989v0.676h-0.989v1.578c0 0.258 0.04 0.44 0.121 0.547 0.081 0.107 0.222 0.16 0.424 0.16 0.202 0 0.39-0.055 0.565-0.165v0.774c-0.195 0.067-0.473 0.101-0.835 0.101 -0.359 0-0.635-0.101-0.828-0.304 -0.193-0.203-0.289-0.492-0.289-0.866V18.015z" fill="#FFF"/></svg>