<?xml version="1.0" standalone="no"?>
<!DOCTYPE svg PUBLIC "-//W3C//DTD SVG 20010904//EN"
 "http://www.w3.org/TR/2001/REC-SVG-20010904/DTD/svg10.dtd">
<svg version="1.0" xmlns="http://www.w3.org/2000/svg"
 width="260.000000pt" height="260.000000pt" viewBox="0 0 260.000000 260.000000"
 preserveAspectRatio="xMidYMid meet">
<metadata>
Created by potrace 1.11, written by Peter Selinger 2001-2013
</metadata>
<g transform="translate(0.000000,260.000000) scale(0.100000,-0.100000)"
fill="#000000" stroke="none">
<path d="M1348 2468 c-101 -173 -158 -300 -192 -427 l-22 -83 -13 58 c-30 134
-136 307 -244 396 -29 24 -58 49 -65 56 -17 15 -53 35 -57 30 -13 -14 -22
-307 -11 -368 3 -14 7 -43 11 -65 7 -54 34 -143 52 -179 l15 -29 -28 22 c-167
127 -294 177 -483 188 l-103 6 27 -44 c99 -157 229 -299 345 -375 22 -15 40
-28 40 -30 0 -1 -15 2 -32 7 -128 37 -324 24 -469 -30 -101 -38 -102 -41 -18
-96 141 -93 296 -160 424 -184 28 -5 41 -9 30 -10 -84 -4 -249 -74 -349 -145
-79 -57 -161 -141 -147 -150 6 -4 11 -5 11 -3 0 3 17 1 38 -4 147 -34 426 -30
542 8 8 3 -7 -9 -35 -27 -71 -46 -173 -155 -221 -236 -35 -60 -94 -190 -94
-209 0 -17 177 28 286 73 82 33 184 90 233 129 l33 27 -30 -48 c-71 -111 -114
-271 -114 -424 0 -52 3 -96 6 -99 8 -9 145 98 219 172 65 65 151 172 170 212
13 29 31 30 22 2 -13 -39 -12 -164 1 -240 14 -80 61 -212 95 -268 l21 -34 44
74 c83 142 148 332 154 459 2 21 4 27 7 15 34 -148 130 -307 255 -419 59 -54
77 -65 79 -48 28 209 5 505 -44 570 -6 8 -6 12 1 12 6 0 12 -4 14 -9 8 -23 83
-102 131 -139 115 -88 357 -191 357 -151 0 6 -13 51 -30 100 -54 161 -138 308
-230 398 l-49 49 77 -26 c129 -42 307 -39 477 7 88 23 87 30 -17 104 -144 103
-327 187 -428 197 -8 1 27 10 79 21 148 31 290 105 397 205 58 55 63 52 -104
85 -120 25 -339 31 -404 12 -21 -6 -38 -10 -38 -8 0 2 26 19 58 39 73 44 155
123 216 208 46 65 106 177 106 199 0 13 -56 5 -195 -30 -121 -31 -253 -87
-328 -138 l-47 -33 40 58 c63 93 110 213 126 322 7 52 11 163 6 182 -5 21 -13
17 -147 -83 -124 -92 -217 -188 -270 -281 l-25 -43 7 35 c5 19 7 87 7 150 -1
126 -22 222 -69 326 -50 108 -46 108 -107 2z"/>
</g>
</svg>
